<mxfile host="app.diagrams.net" agent="Mozilla/5.0 (Windows NT 10.0; Win64; x64) AppleWebKit/537.36 (KHTML, like Gecko) Chrome/130.0.0.0 Safari/537.36" version="24.8.1">
  <diagram name="Страница — 1" id="9SsIets74TTxYJMYLhih">
    <mxGraphModel dx="1687" dy="878" grid="1" gridSize="10" guides="1" tooltips="1" connect="1" arrows="1" fold="1" page="1" pageScale="1" pageWidth="2339" pageHeight="3300" math="0" shadow="0">
      <root>
        <mxCell id="0" />
        <mxCell id="1" parent="0" />
        <mxCell id="lgjhHmhEUfBVVSUQdlQv-1" value="" style="rounded=0;whiteSpace=wrap;html=1;movable=1;resizable=1;rotatable=1;deletable=1;editable=1;locked=0;connectable=1;" vertex="1" parent="1">
          <mxGeometry x="100" y="60" width="520" height="1020" as="geometry" />
        </mxCell>
        <mxCell id="lgjhHmhEUfBVVSUQdlQv-3" value="Заголовок" style="text;html=1;align=center;verticalAlign=middle;whiteSpace=wrap;rounded=0;strokeWidth=1;fontStyle=1" vertex="1" parent="1">
          <mxGeometry x="190" y="90" width="60" height="30" as="geometry" />
        </mxCell>
        <mxCell id="lgjhHmhEUfBVVSUQdlQv-5" value="Добавление фото и видео в отзыв" style="text;html=1;align=center;verticalAlign=middle;whiteSpace=wrap;rounded=0;" vertex="1" parent="1">
          <mxGeometry x="380" y="90" width="140" height="30" as="geometry" />
        </mxCell>
        <mxCell id="lgjhHmhEUfBVVSUQdlQv-7" value="&lt;b&gt;Акторы&lt;/b&gt;" style="text;html=1;align=center;verticalAlign=middle;whiteSpace=wrap;rounded=0;" vertex="1" parent="1">
          <mxGeometry x="190" y="160" width="60" height="30" as="geometry" />
        </mxCell>
        <mxCell id="lgjhHmhEUfBVVSUQdlQv-8" value="Пользователь" style="text;html=1;align=center;verticalAlign=middle;whiteSpace=wrap;rounded=0;" vertex="1" parent="1">
          <mxGeometry x="430" y="160" width="60" height="30" as="geometry" />
        </mxCell>
        <mxCell id="lgjhHmhEUfBVVSUQdlQv-9" value="&lt;b&gt;Предусловие&lt;/b&gt;" style="text;html=1;align=center;verticalAlign=middle;whiteSpace=wrap;rounded=0;" vertex="1" parent="1">
          <mxGeometry x="170" y="230" width="100" height="30" as="geometry" />
        </mxCell>
        <mxCell id="lgjhHmhEUfBVVSUQdlQv-12" value="Пользователь авторизован в приложении и имеет возможность оставлять отзывы о товарах." style="text;html=1;align=left;verticalAlign=middle;whiteSpace=wrap;rounded=0;" vertex="1" parent="1">
          <mxGeometry x="342.5" y="230" width="270" height="30" as="geometry" />
        </mxCell>
        <mxCell id="lgjhHmhEUfBVVSUQdlQv-13" value="&lt;b&gt;Ограничения&lt;/b&gt;" style="text;html=1;align=center;verticalAlign=middle;whiteSpace=wrap;rounded=0;" vertex="1" parent="1">
          <mxGeometry x="190" y="330" width="60" height="30" as="geometry" />
        </mxCell>
        <mxCell id="lgjhHmhEUfBVVSUQdlQv-15" value="Ограничение на максимальный размер фото и видео, ограничение на количество загружаемых файлов." style="text;html=1;align=left;verticalAlign=middle;whiteSpace=wrap;rounded=0;" vertex="1" parent="1">
          <mxGeometry x="342.5" y="330" width="265" height="30" as="geometry" />
        </mxCell>
        <mxCell id="lgjhHmhEUfBVVSUQdlQv-16" value="&lt;b&gt;Триггер&lt;/b&gt;" style="text;html=1;align=center;verticalAlign=middle;whiteSpace=wrap;rounded=0;" vertex="1" parent="1">
          <mxGeometry x="190" y="420" width="60" height="30" as="geometry" />
        </mxCell>
        <mxCell id="lgjhHmhEUfBVVSUQdlQv-17" value="Пользователь нажимает кнопку &quot;добавить отзыв&quot;." style="text;html=1;align=left;verticalAlign=middle;whiteSpace=wrap;rounded=0;fontStyle=0" vertex="1" parent="1">
          <mxGeometry x="342.5" y="420" width="265" height="30" as="geometry" />
        </mxCell>
        <mxCell id="lgjhHmhEUfBVVSUQdlQv-18" value="&lt;b&gt;Основной сценарий&lt;/b&gt;" style="text;html=1;align=center;verticalAlign=middle;whiteSpace=wrap;rounded=0;" vertex="1" parent="1">
          <mxGeometry x="190" y="610" width="60" height="30" as="geometry" />
        </mxCell>
        <mxCell id="lgjhHmhEUfBVVSUQdlQv-20" value="&lt;div&gt;1. Пользователь открывает приложение.&lt;/div&gt;&lt;div&gt;&lt;br&gt;&lt;/div&gt;&lt;div&gt;2. Пользователь находит ранее купленный товар и переходит в раздел &quot;Оставить отзыв&quot;.&lt;/div&gt;&lt;div&gt;&lt;br&gt;&lt;/div&gt;&lt;div&gt;3. Пользователь вводит текст отзыва.&lt;/div&gt;&lt;div&gt;&lt;br&gt;&lt;/div&gt;&lt;div&gt;4. Пользователь нажимает на кнопку &quot;Добавить фото/видео&quot;.&lt;/div&gt;&lt;div&gt;&lt;br&gt;&lt;/div&gt;&lt;div&gt;5. Открывается диалоговое окно для выбора фото и видео из галереи устройства.&lt;/div&gt;&lt;div&gt;&lt;br&gt;&lt;/div&gt;&lt;div&gt;6. Пользователь выбирает одно или несколько фото/видео.&lt;/div&gt;&lt;div&gt;&lt;br&gt;&lt;/div&gt;&lt;div&gt;7. Приложение загружает выбранные файлы на сервер.&lt;/div&gt;&lt;div&gt;&lt;br&gt;&lt;/div&gt;&lt;div&gt;8. Приложение отображает миниатюры загруженных файлов в отзыве.&lt;/div&gt;&lt;div&gt;&lt;br&gt;&lt;/div&gt;&lt;div&gt;9. Пользователь нажимает на кнопку &quot;Отправить отзыв&quot;.&lt;/div&gt;&lt;div&gt;&lt;br&gt;&lt;/div&gt;" style="text;html=1;align=left;verticalAlign=middle;whiteSpace=wrap;rounded=0;movable=1;resizable=1;rotatable=1;deletable=1;editable=1;locked=0;connectable=1;" vertex="1" parent="1">
          <mxGeometry x="337.5" y="460" width="280" height="460" as="geometry" />
        </mxCell>
        <mxCell id="lgjhHmhEUfBVVSUQdlQv-22" value="&lt;b&gt;Альтернативный сценарий&lt;/b&gt;" style="text;html=1;align=center;verticalAlign=middle;whiteSpace=wrap;rounded=0;" vertex="1" parent="1">
          <mxGeometry x="190" y="980" width="60" height="30" as="geometry" />
        </mxCell>
        <mxCell id="lgjhHmhEUfBVVSUQdlQv-32" value="&lt;div&gt;1. Пользователь пытается загрузить файл, превышающий ограничение по размеру.&lt;/div&gt;&lt;div&gt;&lt;br&gt;&lt;/div&gt;&lt;div&gt;2. Приложение выводит сообщение об ошибке и предлагает выбрать файлы&lt;/div&gt;" style="text;html=1;align=left;verticalAlign=middle;whiteSpace=wrap;rounded=0;" vertex="1" parent="1">
          <mxGeometry x="335" y="945" width="270" height="100" as="geometry" />
        </mxCell>
        <mxCell id="lgjhHmhEUfBVVSUQdlQv-33" value="" style="rounded=0;whiteSpace=wrap;html=1;fillColor=none;" vertex="1" parent="1">
          <mxGeometry x="100" y="130" width="520" height="80" as="geometry" />
        </mxCell>
        <mxCell id="lgjhHmhEUfBVVSUQdlQv-34" value="" style="rounded=0;whiteSpace=wrap;html=1;fillColor=none;" vertex="1" parent="1">
          <mxGeometry x="100" y="210" width="520" height="90" as="geometry" />
        </mxCell>
        <mxCell id="lgjhHmhEUfBVVSUQdlQv-35" value="" style="rounded=0;whiteSpace=wrap;html=1;fillColor=none;" vertex="1" parent="1">
          <mxGeometry x="100" y="300" width="520" height="80" as="geometry" />
        </mxCell>
        <mxCell id="lgjhHmhEUfBVVSUQdlQv-36" value="" style="rounded=0;whiteSpace=wrap;html=1;fillColor=none;" vertex="1" parent="1">
          <mxGeometry x="100" y="380" width="520" height="90" as="geometry" />
        </mxCell>
        <mxCell id="lgjhHmhEUfBVVSUQdlQv-37" value="" style="rounded=0;whiteSpace=wrap;html=1;fillColor=none;movable=0;resizable=0;rotatable=0;deletable=0;editable=0;locked=1;connectable=0;" vertex="1" parent="1">
          <mxGeometry x="100" y="470" width="520" height="410" as="geometry" />
        </mxCell>
        <mxCell id="lgjhHmhEUfBVVSUQdlQv-39" style="edgeStyle=none;rounded=0;orthogonalLoop=1;jettySize=auto;html=1;exitX=0.5;exitY=1;exitDx=0;exitDy=0;" edge="1" parent="1" source="lgjhHmhEUfBVVSUQdlQv-1" target="lgjhHmhEUfBVVSUQdlQv-1">
          <mxGeometry relative="1" as="geometry" />
        </mxCell>
        <mxCell id="lgjhHmhEUfBVVSUQdlQv-41" value="" style="rounded=0;whiteSpace=wrap;html=1;fillColor=none;rotation=-90;" vertex="1" parent="1">
          <mxGeometry x="-300" y="460" width="1020" height="220" as="geometry" />
        </mxCell>
      </root>
    </mxGraphModel>
  </diagram>
</mxfile>
